<?xml version="1.0" encoding="UTF-8"?>
<svg id="Layer_1" data-name="Layer 1" xmlns="http://www.w3.org/2000/svg" xmlns:xlink="http://www.w3.org/1999/xlink" viewBox="0 0 601.47 116">
  <defs>
    <style>
      .cls-1 {
        fill: url(#New_Gradient_Swatch);
      }

      .cls-2 {
        fill: url(#New_Gradient_Swatch_copy-2);
      }

      .cls-3 {
        fill: #191C1F;
      }

      .cls-4 {
        fill: url(#New_Gradient_Swatch-2);
      }

      .cls-5 {
        fill: url(#New_Gradient_Swatch_copy);
      }
    </style>
    <linearGradient id="New_Gradient_Swatch_copy" data-name="New Gradient Swatch copy" x1="55.07" y1="7.28" x2="55.07" y2="111.82" gradientUnits="userSpaceOnUse">
      <stop offset="0" stop-color="#53bbcb"/>
      <stop offset="1" stop-color="#9ae4dc"/>
    </linearGradient>
    <linearGradient id="New_Gradient_Swatch" data-name="New Gradient Swatch" x1="58" y1="-24.22" x2="58" y2="141.33" gradientUnits="userSpaceOnUse">
      <stop offset="0" stop-color="#172c53"/>
      <stop offset="1" stop-color="#35828f"/>
    </linearGradient>
    <linearGradient id="New_Gradient_Swatch_copy-2" data-name="New Gradient Swatch copy" x1="60" x2="60" y2="111.82" xlink:href="#New_Gradient_Swatch_copy"/>
    <linearGradient id="New_Gradient_Swatch-2" data-name="New Gradient Swatch" x1="58" y1="-1.54" x2="58" y2="118.34" xlink:href="#New_Gradient_Swatch"/>
  </defs>
  <g>
    <path class="cls-3" d="M171.95,86.47l-15.23-19.12v19.12h-11.34V26.53h11.34v34.1l15.07-19.04h14.74l-19.76,22.52,19.93,22.36h-14.74Z"/>
    <path class="cls-3" d="M229.08,67.43h-32.81c.27,3.24,1.4,5.78,3.4,7.61,2,1.84,4.46,2.75,7.37,2.75,4.21,0,7.21-1.81,8.99-5.43h12.23c-1.3,4.32-3.78,7.87-7.45,10.65-3.67,2.78-8.18,4.17-13.53,4.17-4.32,0-8.2-.96-11.62-2.88-3.43-1.92-6.1-4.63-8.02-8.14-1.92-3.51-2.88-7.56-2.88-12.15s.94-8.72,2.83-12.23c1.89-3.51,4.54-6.21,7.94-8.1,3.4-1.89,7.32-2.83,11.75-2.83s8.09.92,11.46,2.75c3.37,1.84,5.99,4.44,7.86,7.82,1.86,3.38,2.79,7.25,2.79,11.62,0,1.62-.11,3.08-.32,4.37ZM217.65,59.82c-.05-2.92-1.11-5.25-3.16-7.01-2.05-1.75-4.56-2.63-7.53-2.63-2.81,0-5.17.85-7.09,2.55-1.92,1.7-3.09,4.06-3.52,7.09h21.3Z"/>
    <path class="cls-3" d="M278.95,67.43h-32.81c.27,3.24,1.4,5.78,3.4,7.61,2,1.84,4.46,2.75,7.37,2.75,4.21,0,7.21-1.81,8.99-5.43h12.23c-1.3,4.32-3.78,7.87-7.45,10.65-3.67,2.78-8.18,4.17-13.53,4.17-4.32,0-8.2-.96-11.62-2.88-3.43-1.92-6.1-4.63-8.02-8.14-1.92-3.51-2.88-7.56-2.88-12.15s.94-8.72,2.83-12.23c1.89-3.51,4.54-6.21,7.94-8.1,3.4-1.89,7.32-2.83,11.75-2.83s8.09.92,11.46,2.75c3.37,1.84,5.99,4.44,7.86,7.82,1.86,3.38,2.79,7.25,2.79,11.62,0,1.62-.11,3.08-.32,4.37ZM267.52,59.82c-.05-2.92-1.11-5.25-3.16-7.01-2.05-1.75-4.56-2.63-7.53-2.63-2.81,0-5.17.85-7.09,2.55-1.92,1.7-3.09,4.06-3.52,7.09h21.3Z"/>
    <path class="cls-3" d="M302.01,42.93c2.56-1.38,5.49-2.07,8.79-2.07,3.83,0,7.3.95,10.41,2.83,3.1,1.89,5.56,4.58,7.37,8.06,1.81,3.48,2.71,7.52,2.71,12.11s-.91,8.65-2.71,12.19c-1.81,3.54-4.27,6.28-7.37,8.22-3.11,1.94-6.57,2.92-10.41,2.92-3.29,0-6.2-.68-8.71-2.02-2.51-1.35-4.55-3.05-6.12-5.1v27.78h-11.34V41.59h11.34v6.48c1.46-2.05,3.47-3.77,6.04-5.14ZM318.05,56.86c-1.11-1.97-2.57-3.47-4.37-4.5-1.81-1.03-3.77-1.54-5.87-1.54s-3.98.53-5.79,1.58c-1.81,1.05-3.27,2.58-4.37,4.58-1.11,2-1.66,4.35-1.66,7.05s.55,5.05,1.66,7.05c1.11,2,2.56,3.52,4.37,4.58,1.81,1.05,3.74,1.58,5.79,1.58s4.06-.54,5.87-1.62c1.81-1.08,3.27-2.62,4.37-4.62,1.11-2,1.66-4.37,1.66-7.13s-.55-5.04-1.66-7.01Z"/>
    <path class="cls-3" d="M358.63,51.8c1.81-3.51,4.26-6.21,7.37-8.1,3.1-1.89,6.57-2.83,10.41-2.83,3.35,0,6.28.68,8.79,2.02,2.51,1.35,4.52,3.05,6.04,5.1v-6.4h11.42v44.87h-11.42v-6.56c-1.46,2.11-3.47,3.85-6.04,5.22-2.57,1.38-5.52,2.07-8.87,2.07-3.78,0-7.22-.97-10.33-2.92-3.11-1.94-5.56-4.68-7.37-8.22-1.81-3.54-2.71-7.6-2.71-12.19s.9-8.56,2.71-12.07ZM389.61,56.94c-1.08-1.97-2.54-3.48-4.37-4.54-1.84-1.05-3.81-1.58-5.91-1.58s-4.05.51-5.83,1.54c-1.78,1.03-3.23,2.52-4.33,4.5-1.11,1.97-1.66,4.31-1.66,7.01s.55,5.06,1.66,7.09c1.11,2.03,2.56,3.58,4.37,4.66,1.81,1.08,3.74,1.62,5.79,1.62s4.08-.53,5.91-1.58c1.83-1.05,3.29-2.56,4.37-4.54,1.08-1.97,1.62-4.33,1.62-7.09s-.54-5.12-1.62-7.09Z"/>
    <path class="cls-3" d="M474.96,41.59l-13.12,44.87h-12.23l-8.18-31.35-8.18,31.35h-12.31l-13.2-44.87h11.5l7.94,34.18,8.59-34.18h11.99l8.42,34.1,7.94-34.1h10.85Z"/>
    <path class="cls-3" d="M478.76,51.8c1.81-3.51,4.26-6.21,7.37-8.1,3.1-1.89,6.57-2.83,10.41-2.83,3.35,0,6.28.68,8.79,2.02,2.51,1.35,4.52,3.05,6.04,5.1v-6.4h11.42v44.87h-11.42v-6.56c-1.46,2.11-3.47,3.85-6.04,5.22-2.57,1.38-5.52,2.07-8.87,2.07-3.78,0-7.22-.97-10.33-2.92-3.11-1.94-5.56-4.68-7.37-8.22-1.81-3.54-2.71-7.6-2.71-12.19s.9-8.56,2.71-12.07ZM509.74,56.94c-1.08-1.97-2.54-3.48-4.37-4.54-1.84-1.05-3.81-1.58-5.91-1.58s-4.05.51-5.83,1.54c-1.78,1.03-3.23,2.52-4.33,4.5-1.11,1.97-1.66,4.31-1.66,7.01s.55,5.06,1.66,7.09c1.11,2.03,2.56,3.58,4.37,4.66,1.81,1.08,3.74,1.62,5.79,1.62s4.08-.53,5.91-1.58c1.83-1.05,3.29-2.56,4.37-4.54,1.08-1.97,1.62-4.33,1.62-7.09s-.54-5.12-1.62-7.09Z"/>
    <path class="cls-3" d="M547.08,42.97c2.35-1.35,5.03-2.03,8.06-2.03v11.91h-3c-3.56,0-6.25.84-8.06,2.51-1.81,1.67-2.71,4.59-2.71,8.75v22.36h-11.34v-44.87h11.34v6.97c1.46-2.38,3.36-4.24,5.71-5.59Z"/>
    <path class="cls-3" d="M601.15,67.43h-32.81c.27,3.24,1.4,5.78,3.4,7.61,2,1.84,4.46,2.75,7.37,2.75,4.21,0,7.21-1.81,8.99-5.43h12.23c-1.3,4.32-3.78,7.87-7.45,10.65-3.67,2.78-8.18,4.17-13.53,4.17-4.32,0-8.2-.96-11.62-2.88-3.43-1.92-6.1-4.63-8.02-8.14-1.92-3.51-2.88-7.56-2.88-12.15s.94-8.72,2.83-12.23c1.89-3.51,4.54-6.21,7.94-8.1,3.4-1.89,7.32-2.83,11.75-2.83s8.09.92,11.46,2.75c3.37,1.84,5.99,4.44,7.86,7.82,1.86,3.38,2.79,7.25,2.79,11.62,0,1.62-.11,3.08-.32,4.37ZM589.72,59.82c-.05-2.92-1.11-5.25-3.16-7.01-2.05-1.75-4.56-2.63-7.53-2.63-2.81,0-5.17.85-7.09,2.55-1.92,1.7-3.09,4.06-3.52,7.09h21.3Z"/>
  </g>
  <g>
    <path class="cls-5" d="M65,100c-23.2,0-42-18.8-42-42s18.8-42,42-42c14.71,0,27.64,7.57,35.15,19.02-8.15-14.9-23.96-25.02-42.15-25.02-26.51,0-48,21.49-48,48s21.49,48,48,48c18.18,0,34-10.11,42.15-25.02-7.5,11.45-20.44,19.02-35.15,19.02Z"/>
    <path class="cls-1" d="M58,0C25.97,0,0,25.97,0,58s25.97,58,58,58,58-25.97,58-58S90.03,0,58,0ZM58,106c-26.51,0-48-21.49-48-48S31.49,10,58,10c18.18,0,34,10.11,42.15,25.02-7.5-11.45-20.44-19.02-35.15-19.02-23.2,0-42,18.8-42,42s18.8,42,42,42c14.71,0,27.64-7.57,35.15-19.02-8.15,14.9-23.96,25.02-42.15,25.02ZM90,58c0,16.57-13.43,30-30,30s-30-13.43-30-30,13.43-30,30-30,30,13.43,30,30Z"/>
    <path class="cls-2" d="M60,28c-16.57,0-30,13.43-30,30s13.43,30,30,30,30-13.43,30-30-13.43-30-30-30ZM58,79c-11.6,0-21-9.4-21-21s9.4-21,21-21,21,9.4,21,21-9.4,21-21,21Z"/>
    <circle class="cls-4" cx="58" cy="58" r="21"/>
  </g>
</svg>